HIERARCHY
ROOT mixamorig:Hips
{
	OFFSET 0.000000 201.639420 0.000000
	CHANNELS 6 Xposition Yposition Zposition Xrotation Yrotation Zrotation
	JOINT mixamorig:Spine
	{
		OFFSET 0.006200 19.524994 -2.481800
		CHANNELS 3 Xrotation Yrotation Zrotation
		JOINT mixamorig:Spine1
		{
			OFFSET -0.000900 22.835007 -2.825400
			CHANNELS 3 Xrotation Yrotation Zrotation
			JOINT mixamorig:Spine2
			{
				OFFSET -0.020600 26.552490 -3.193300
				CHANNELS 3 Xrotation Yrotation Zrotation
				JOINT mixamorig:Neck
				{
					OFFSET -0.060000 30.701813 1.352200
					CHANNELS 3 Xrotation Yrotation Zrotation
					JOINT mixamorig:Head
					{
						OFFSET -0.087200 22.547607 3.670900
						CHANNELS 3 Xrotation Yrotation Zrotation
						JOINT mixamorig:HeadTop_End
						{
							OFFSET -0.830600 40.355194 7.893500
							CHANNELS 3 Xrotation Yrotation Zrotation
							End Site
							{
								OFFSET 0.000000 30.592346 0.000000
							}
						}
						JOINT mixamorig:RightEye
						{
							OFFSET -6.302100 18.118591 16.197100
							CHANNELS 3 Xrotation Yrotation Zrotation
							End Site
							{
								OFFSET 0.000000 30.592346 0.000000
							}
						}
						JOINT mixamorig:LeftEye
						{
							OFFSET 6.741500 18.382690 16.401899
							CHANNELS 3 Xrotation Yrotation Zrotation
							End Site
							{
								OFFSET 0.000000 30.592346 0.000000
							}
						}
					}
				}
				JOINT mixamorig:LeftShoulder
				{
					OFFSET 11.924900 18.230499 1.425400
					CHANNELS 3 Xrotation Yrotation Zrotation
					JOINT mixamorig:LeftArm
					{
						OFFSET 25.435989 -0.697632 -5.229300
						CHANNELS 3 Xrotation Yrotation Zrotation
						JOINT mixamorig:LeftForeArm
						{
							OFFSET 54.684776 0.000000 0.000000
							CHANNELS 3 Xrotation Yrotation Zrotation
							JOINT mixamorig:LeftHand
							{
								OFFSET 55.098175 0.000000 0.000000
								CHANNELS 3 Xrotation Yrotation Zrotation
								JOINT mixamorig:LeftHandMiddle1
								{
									OFFSET 23.369751 0.000000 0.000000
									CHANNELS 3 Xrotation Yrotation Zrotation
									JOINT mixamorig:LeftHandMiddle2
									{
										OFFSET 6.378677 0.000000 0.000000
										CHANNELS 3 Xrotation Yrotation Zrotation
										JOINT mixamorig:LeftHandMiddle3
										{
											OFFSET 6.148331 0.000000 0.000000
											CHANNELS 3 Xrotation Yrotation Zrotation
											JOINT mixamorig:LeftHandMiddle4
											{
												OFFSET 6.582504 0.000000 0.000000
												CHANNELS 3 Xrotation Yrotation Zrotation
												End Site
												{
													OFFSET -1.168900 6.395691 1.028606
												}
											}
										}
									}
								}
								JOINT mixamorig:LeftHandThumb1
								{
									OFFSET 7.235672 -3.848206 5.434273
									CHANNELS 3 Xrotation Yrotation Zrotation
									JOINT mixamorig:LeftHandThumb2
									{
										OFFSET 6.568451 -3.792297 3.792300
										CHANNELS 3 Xrotation Yrotation Zrotation
										JOINT mixamorig:LeftHandThumb3
										{
											OFFSET 6.063080 -3.500519 3.500518
											CHANNELS 3 Xrotation Yrotation Zrotation
											JOINT mixamorig:LeftHandThumb4
											{
												OFFSET 4.793182 -2.767334 2.767349
												CHANNELS 3 Xrotation Yrotation Zrotation
												End Site
												{
													OFFSET 0.101639 6.054260 1.275483
												}
											}
										}
									}
								}
								JOINT mixamorig:LeftHandIndex1
								{
									OFFSET 23.101074 -0.309540 4.992809
									CHANNELS 3 Xrotation Yrotation Zrotation
									JOINT mixamorig:LeftHandIndex2
									{
										OFFSET 6.226883 0.000000 0.000000
										CHANNELS 3 Xrotation Yrotation Zrotation
										JOINT mixamorig:LeftHandIndex3
										{
											OFFSET 6.094330 0.000000 0.000000
											CHANNELS 3 Xrotation Yrotation Zrotation
											JOINT mixamorig:LeftHandIndex4
											{
												OFFSET 5.482605 0.000000 0.000000
												CHANNELS 3 Xrotation Yrotation Zrotation
												End Site
												{
													OFFSET -1.427902 5.233032 0.797164
												}
											}
										}
									}
								}
								JOINT mixamorig:LeftHandRing1
								{
									OFFSET 22.299240 0.021149 -3.964172
									CHANNELS 3 Xrotation Yrotation Zrotation
									JOINT mixamorig:LeftHandRing2
									{
										OFFSET 6.321869 0.000000 0.000000
										CHANNELS 3 Xrotation Yrotation Zrotation
										JOINT mixamorig:LeftHandRing3
										{
											OFFSET 5.899796 0.000000 0.000000
											CHANNELS 3 Xrotation Yrotation Zrotation
											JOINT mixamorig:LeftHandRing4
											{
												OFFSET 6.517899 0.000000 0.000000
												CHANNELS 3 Xrotation Yrotation Zrotation
												End Site
												{
													OFFSET -1.637299 6.232208 0.980890
												}
											}
										}
									}
								}
								JOINT mixamorig:LeftHandPinky1
								{
									OFFSET 20.463791 -0.302338 -8.562233
									CHANNELS 3 Xrotation Yrotation Zrotation
									JOINT mixamorig:LeftHandPinky2
									{
										OFFSET 6.908646 0.000000 0.000000
										CHANNELS 3 Xrotation Yrotation Zrotation
										JOINT mixamorig:LeftHandPinky3
										{
											OFFSET 4.622849 0.000000 0.000000
											CHANNELS 3 Xrotation Yrotation Zrotation
											JOINT mixamorig:LeftHandPinky4
											{
												OFFSET 5.216080 0.000000 0.000000
												CHANNELS 3 Xrotation Yrotation Zrotation
												End Site
												{
													OFFSET -0.606308 5.116241 0.814926
												}
											}
										}
									}
								}
							}
						}
					}
				}
				JOINT mixamorig:RightShoulder
				{
					OFFSET -12.001300 18.284088 1.348900
					CHANNELS 3 Xrotation Yrotation Zrotation
					JOINT mixamorig:RightArm
					{
						OFFSET -25.308500 -0.751312 -5.164599
						CHANNELS 3 Xrotation Yrotation Zrotation
						JOINT mixamorig:RightForeArm
						{
							OFFSET -54.684429 0.000000 0.000000
							CHANNELS 3 Xrotation Yrotation Zrotation
							JOINT mixamorig:RightHand
							{
								OFFSET -55.150291 0.000000 0.000000
								CHANNELS 3 Xrotation Yrotation Zrotation
								JOINT mixamorig:RightHandMiddle1
								{
									OFFSET -23.317566 0.000000 0.000000
									CHANNELS 3 Xrotation Yrotation Zrotation
									JOINT mixamorig:RightHandMiddle2
									{
										OFFSET -6.378403 0.000000 0.000000
										CHANNELS 3 Xrotation Yrotation Zrotation
										JOINT mixamorig:RightHandMiddle3
										{
											OFFSET -6.148193 0.000000 0.000000
											CHANNELS 3 Xrotation Yrotation Zrotation
											JOINT mixamorig:RightHandMiddle4
											{
												OFFSET -6.583389 0.000000 0.000000
												CHANNELS 3 Xrotation Yrotation Zrotation
												End Site
												{
													OFFSET 1.171692 6.395905 1.029786
												}
											}
										}
									}
								}
								JOINT mixamorig:RightHandThumb1
								{
									OFFSET -7.190521 -3.860474 5.435846
									CHANNELS 3 Xrotation Yrotation Zrotation
									JOINT mixamorig:RightHandThumb2
									{
										OFFSET -6.567429 -3.791718 3.791708
										CHANNELS 3 Xrotation Yrotation Zrotation
										JOINT mixamorig:RightHandThumb3
										{
											OFFSET -6.062469 -3.500153 3.500166
											CHANNELS 3 Xrotation Yrotation Zrotation
											JOINT mixamorig:RightHandThumb4
											{
												OFFSET -4.792618 -2.767029 2.767022
												CHANNELS 3 Xrotation Yrotation Zrotation
												End Site
												{
													OFFSET -0.100327 6.053253 1.276754
												}
											}
										}
									}
								}
								JOINT mixamorig:RightHandIndex1
								{
									OFFSET -23.048981 -0.310791 4.992554
									CHANNELS 3 Xrotation Yrotation Zrotation
									JOINT mixamorig:RightHandIndex2
									{
										OFFSET -6.227539 0.000000 0.000000
										CHANNELS 3 Xrotation Yrotation Zrotation
										JOINT mixamorig:RightHandIndex3
										{
											OFFSET -6.095047 0.000000 0.000000
											CHANNELS 3 Xrotation Yrotation Zrotation
											JOINT mixamorig:RightHandIndex4
											{
												OFFSET -5.484772 0.000000 0.000000
												CHANNELS 3 Xrotation Yrotation Zrotation
												End Site
												{
													OFFSET 1.420593 5.237305 0.797056
												}
											}
										}
									}
								}
								JOINT mixamorig:RightHandRing1
								{
									OFFSET -22.246323 0.020569 -3.963762
									CHANNELS 3 Xrotation Yrotation Zrotation
									JOINT mixamorig:RightHandRing2
									{
										OFFSET -6.322128 0.000000 0.000000
										CHANNELS 3 Xrotation Yrotation Zrotation
										JOINT mixamorig:RightHandRing3
										{
											OFFSET -5.900024 0.000000 0.000000
											CHANNELS 3 Xrotation Yrotation Zrotation
											JOINT mixamorig:RightHandRing4
											{
												OFFSET -6.518356 0.000000 0.000000
												CHANNELS 3 Xrotation Yrotation Zrotation
												End Site
												{
													OFFSET 1.636398 6.232697 0.982186
												}
											}
										}
									}
								}
								JOINT mixamorig:RightHandPinky1
								{
									OFFSET -20.411011 -0.303314 -8.561701
									CHANNELS 3 Xrotation Yrotation Zrotation
									JOINT mixamorig:RightHandPinky2
									{
										OFFSET -6.907349 0.000000 0.000000
										CHANNELS 3 Xrotation Yrotation Zrotation
										JOINT mixamorig:RightHandPinky3
										{
											OFFSET -4.623840 0.000000 0.000000
											CHANNELS 3 Xrotation Yrotation Zrotation
											JOINT mixamorig:RightHandPinky4
											{
												OFFSET -5.218353 0.000000 0.000000
												CHANNELS 3 Xrotation Yrotation Zrotation
												End Site
												{
													OFFSET 0.602097 5.118835 0.816273
												}
											}
										}
									}
								}
							}
						}
					}
				}
			}
		}
	}
	JOINT mixamorig:LeftUpLeg
	{
		OFFSET 18.168400 -13.561905 -0.039000
		CHANNELS 3 Xrotation Yrotation Zrotation
		JOINT mixamorig:LeftLeg
		{
			OFFSET 0.577358 -80.825211 -3.695000
			CHANNELS 3 Xrotation Yrotation Zrotation
			JOINT mixamorig:LeftFoot
			{
				OFFSET -0.577356 -83.370262 -6.520700
				CHANNELS 3 Xrotation Yrotation Zrotation
				JOINT mixamorig:LeftToeBase
				{
					OFFSET 0.750401 -20.798306 25.135401
					CHANNELS 3 Xrotation Yrotation Zrotation
					JOINT mixamorig:LeftToe_End
					{
						OFFSET -0.000500 0.001200 19.917799
						CHANNELS 3 Xrotation Yrotation Zrotation
						End Site
						{
							OFFSET 0.000000 19.917805 0.000000
						}
					}
				}
			}
		}
	}
	JOINT mixamorig:RightUpLeg
	{
		OFFSET -18.162500 -13.585098 -0.041000
		CHANNELS 3 Xrotation Yrotation Zrotation
		JOINT mixamorig:RightLeg
		{
			OFFSET -0.595024 -80.945297 -3.631900
			CHANNELS 3 Xrotation Yrotation Zrotation
			JOINT mixamorig:RightFoot
			{
				OFFSET 0.595024 -83.218193 -6.561200
				CHANNELS 3 Xrotation Yrotation Zrotation
				JOINT mixamorig:RightToeBase
				{
					OFFSET -0.753601 -20.807106 25.115000
					CHANNELS 3 Xrotation Yrotation Zrotation
					JOINT mixamorig:RightToe_End
					{
						OFFSET 0.000299 0.001700 19.918200
						CHANNELS 3 Xrotation Yrotation Zrotation
						End Site
						{
							OFFSET 0.000000 19.918203 0.000000
						}
					}
				}
			}
		}
	}
}
MOTION
Frames: 6
Frame Time: 0.033333
2.135608 199.446899 32.480812 3.295825 3.290526 -1.438753 4.905851 -0.249847 0.722327 1.351252 -0.046466 0.415627 1.351971 -0.034313 0.413507 -12.698812 -1.607626 3.162383 -3.267643 -1.870283 -5.147796 -0.000000 0.000000 0.000000 -0.000000 0.000000 0.000000 -0.000000 0.000000 0.000000 1.529591 -13.105521 -8.878161 -0.388583 -24.678172 -57.247753 -0.000002 -7.854110 0.000001 4.955449 -17.321995 -5.358264 1.817087 7.645102 -23.035387 0.673905 2.729886 -27.729065 0.120470 1.183199 -11.627218 0.000001 -0.000001 0.000002 -20.738357 -4.054225 0.322000 10.662264 38.442900 15.710610 2.133363 3.626951 13.772635 0.000002 0.000003 0.000000 0.670793 4.955248 -26.274414 0.365851 2.039642 -20.336002 0.237281 1.651985 -16.346014 0.000000 -0.000000 -0.000004 2.253281 8.853038 -22.030278 0.427103 2.197745 -21.992880 0.220464 1.593568 -15.752226 0.000000 -0.000001 -0.000001 1.558648 10.885292 -28.109652 0.303180 1.861906 -18.494863 0.401176 2.132461 -21.306434 -0.000002 0.000000 0.000004 1.615824 12.949090 16.196511 -4.438540 12.451644 51.703859 0.000002 9.514341 0.000002 15.205992 8.091110 14.976003 0.152385 -3.262684 12.133548 0.528540 -2.156790 27.536077 0.034574 -0.566967 6.977152 -0.000001 -0.000004 -0.000004 -15.035565 -1.526555 -0.168522 12.354296 -30.174577 -13.137053 -0.665442 11.829309 -22.801936 -0.000001 -0.000002 -0.000001 0.298660 -3.789309 18.855234 0.272003 -1.569806 19.658736 0.017647 -0.405468 4.983624 -0.000001 0.000001 -0.000003 0.189357 -3.420835 14.129115 0.516595 -2.133743 27.217102 0.153606 -1.187424 14.740672 0.000002 -0.000003 -0.000001 0.188944 -3.419225 14.108521 0.242382 -1.484329 18.547411 0.614811 -2.314606 29.747089 -0.000001 0.000002 -0.000000 -17.658732 9.321899 7.545575 20.003283 -2.853767 2.632192 -6.197438 0.150437 -2.430245 -0.823474 -0.000003 -0.000000 -0.000000 0.000000 0.000000 -12.729826 -5.649063 -3.992117 14.671240 -4.265731 -2.495967 -4.589927 -1.856044 5.091705 -0.185416 -0.000004 0.000001 -0.000000 -0.000001 -0.000000 
1.413352 198.966980 33.520576 3.215549 2.970704 -1.360142 4.053927 -0.066902 0.542927 0.948464 0.001205 0.363489 0.948718 0.012722 0.362771 -12.092614 -1.681885 3.299688 -4.232486 -1.792432 -4.967436 -0.000000 -0.000000 -0.000000 -0.000000 -0.000000 -0.000000 -0.000000 -0.000000 -0.000000 1.552516 -13.209767 -8.571797 -1.219643 -23.379200 -59.635741 -0.000010 -6.266483 0.000006 4.801491 -17.106979 -4.685673 1.817064 7.645073 -23.035108 0.673894 2.729877 -27.728920 0.120479 1.183183 -11.627198 -0.000001 0.000000 0.000001 -20.738133 -4.054164 0.321714 10.662349 38.442487 15.710588 2.133353 3.626874 13.772756 -0.000001 -0.000001 -0.000000 0.670759 4.955166 -26.274206 0.365852 2.039629 -20.335951 0.237278 1.651994 -16.345980 -0.000002 0.000001 -0.000001 2.253268 8.853021 -22.030116 0.427096 2.197738 -21.992799 0.220458 1.593557 -15.752207 -0.000000 0.000003 0.000000 1.558659 10.885283 -28.109374 0.303171 1.861903 -18.494808 0.401165 2.132440 -21.306369 -0.000001 0.000001 0.000005 1.465034 13.750207 15.072231 -3.407260 9.889123 54.814003 0.000002 9.296265 0.000012 15.027224 7.191575 13.075840 0.152398 -3.262667 12.133452 0.528538 -2.156771 27.536034 0.034566 -0.566944 6.977216 0.000005 0.000000 0.000001 -15.035459 -1.526566 -0.168332 12.354318 -30.174277 -13.137056 -0.665650 11.829215 -22.801760 0.000003 0.000003 0.000004 0.298626 -3.789211 18.855082 0.271993 -1.569778 19.658553 0.017653 -0.405475 4.983776 0.000002 -0.000000 0.000000 0.189358 -3.420870 14.129025 0.516598 -2.133712 27.216955 0.153610 -1.187444 14.740800 0.000001 0.000001 -0.000002 0.188968 -3.419325 14.108446 0.242388 -1.484316 18.547310 0.614783 -2.314585 29.746939 -0.000003 -0.000002 -0.000000 -17.968768 9.545556 8.002014 21.426206 -2.990762 2.555235 -7.253890 0.241613 -2.557920 -0.833705 0.000004 0.000002 -0.000000 0.000000 0.000000 -13.607928 -6.019845 -4.034593 17.118037 -3.819204 -2.427468 -6.177628 -1.593842 4.824506 -0.163464 -0.000001 -0.000002 -0.000000 -0.000001 -0.000000 
0.707516 198.476410 34.512669 3.268692 2.425613 -1.286931 3.198083 0.190967 0.413048 0.535993 0.069662 0.329743 0.535640 0.080247 0.328875 -11.550348 -1.644365 3.288298 -5.272771 -1.676296 -4.654459 -0.000001 -0.000000 -0.000000 -0.000001 -0.000000 -0.000000 -0.000001 -0.000000 -0.000000 1.539198 -13.257407 -8.532306 -1.543871 -21.914645 -61.693294 0.000007 -4.972601 0.000030 4.236937 -16.701564 -4.349885 1.817112 7.645144 -23.035626 0.673906 2.729882 -27.729146 0.120479 1.183191 -11.627243 0.000002 0.000000 -0.000001 -20.738539 -4.054263 0.322237 10.662204 38.443207 15.710600 2.133360 3.627020 13.772565 0.000002 0.000001 -0.000001 0.670839 4.955312 -26.274601 0.365849 2.039632 -20.336067 0.237289 1.652005 -16.346043 -0.000001 0.000000 -0.000002 2.253303 8.853060 -22.030442 0.427119 2.197749 -21.992933 0.220459 1.593559 -15.752265 -0.000003 0.000001 -0.000003 1.558649 10.885289 -28.109900 0.303168 1.861895 -18.494890 0.401169 2.132459 -21.306492 -0.000002 0.000002 0.000000 1.553007 14.199415 13.520143 -2.616363 7.550031 58.313409 0.000005 9.156745 0.000000 14.367346 6.104655 11.342785 0.152391 -3.262683 12.133650 0.528543 -2.156793 27.536114 0.034565 -0.566948 6.977090 0.000002 -0.000001 -0.000002 -15.035642 -1.526571 -0.168708 12.354236 -30.174796 -13.137031 -0.665276 11.829403 -22.802064 0.000003 -0.000001 0.000002 0.298694 -3.789384 18.855318 0.272005 -1.569814 19.658893 0.017633 -0.405452 4.983501 0.000001 0.000000 -0.000000 0.189350 -3.420810 14.129185 0.516605 -2.133766 27.217221 0.153602 -1.187422 14.740527 0.000001 -0.000000 0.000001 0.188936 -3.419144 14.108582 0.242379 -1.484346 18.547500 0.614805 -2.314604 29.747233 -0.000002 0.000001 0.000001 -18.313733 9.661741 8.468572 22.715961 -2.789002 2.431791 -8.245859 0.334760 -2.791223 -0.791077 0.000003 0.000001 0.000000 0.000001 -0.000000 -14.514610 -6.375462 -4.131446 19.238117 -3.375299 -2.277110 -7.560265 -1.115211 4.584399 -0.119247 -0.000004 -0.000001 -0.000000 -0.000001 -0.000000 
0.047892 198.021240 35.432705 3.326007 1.870251 -1.216874 2.424793 0.355403 0.365340 0.154421 0.111186 0.320902 0.153701 0.120314 0.316454 -11.008455 -1.512749 3.157501 -6.396095 -1.477566 -4.272962 -0.000001 0.000000 0.000000 -0.000001 0.000000 0.000000 -0.000001 0.000000 0.000000 1.508596 -13.265165 -8.623297 -1.347511 -20.504071 -63.505685 0.000008 -3.860270 0.000009 4.109372 -16.192468 -4.346951 1.817110 7.645144 -23.035511 0.673914 2.729883 -27.729086 0.120486 1.183231 -11.627789 -0.000000 0.000002 0.000001 -20.738452 -4.054242 0.322135 10.662232 38.443071 15.710593 2.133348 3.626985 13.772616 0.000001 0.000000 0.000000 0.670820 4.955288 -26.274507 0.365859 2.039621 -20.336040 0.237278 1.652006 -16.346029 0.000000 0.000001 0.000001 2.253305 8.853054 -22.030362 0.427106 2.197752 -21.992892 0.220454 1.593566 -15.752236 -0.000000 -0.000003 -0.000001 1.558663 10.885282 -28.109801 0.303169 1.861901 -18.494875 0.401164 2.132447 -21.306475 0.000000 -0.000002 0.000002 1.772821 14.406064 11.737969 -1.801375 5.506851 61.825363 -0.000001 9.301479 -0.000002 13.658038 5.027801 9.992241 0.152392 -3.262685 12.133597 0.528543 -2.156786 27.536084 0.034561 -0.566949 6.977106 0.000002 -0.000003 -0.000002 -15.035367 -1.526427 -0.168765 12.354244 -30.174693 -13.137060 -0.665342 11.829366 -22.801991 0.000003 0.000001 0.000004 0.298667 -3.789348 18.855270 0.272009 -1.569808 19.658833 0.017642 -0.405460 4.983544 -0.000001 -0.000001 0.000001 0.189338 -3.420813 14.129171 0.516601 -2.133746 27.217177 0.153598 -1.187434 14.740568 0.000001 0.000001 -0.000001 0.188941 -3.419173 14.108538 0.242383 -1.484336 18.547478 0.614809 -2.314611 29.747147 -0.000002 -0.000005 -0.000003 -18.412414 9.707812 8.897806 23.500313 -2.371889 2.350124 -8.951350 0.452000 -3.555579 -0.686659 0.000000 0.000001 -0.000000 -0.000000 -0.000000 -15.078824 -6.627719 -4.197037 20.661889 -3.060488 -2.229455 -8.563274 -0.735095 4.854812 -0.080666 0.000002 -0.000000 0.000000 0.000000 0.000000 
-0.570786 197.610352 36.255798 3.376736 1.537349 -1.151655 1.746324 0.306486 0.379479 -0.186294 0.091965 0.328331 -0.186888 0.100481 0.322628 -10.432118 -1.346750 2.987460 -7.629585 -1.229207 -3.881017 0.000001 -0.000000 -0.000000 0.000001 -0.000000 -0.000000 0.000001 -0.000000 -0.000000 1.478810 -13.344396 -8.638701 -0.757414 -19.215597 -65.223505 -0.000002 -2.830279 -0.000020 4.662938 -15.746917 -4.600272 1.817091 7.645107 -23.035445 0.673911 2.729889 -27.729079 0.120501 1.183324 -11.628625 0.000001 0.000001 0.000004 -20.738404 -4.054239 0.322045 10.662243 38.442968 15.710639 2.133371 3.626967 13.772627 -0.000001 -0.000001 -0.000001 0.670800 4.955257 -26.274450 0.365852 2.039616 -20.336045 0.237276 1.651995 -16.346022 -0.000002 -0.000001 0.000001 2.253292 8.853036 -22.030323 0.427110 2.197740 -21.992885 0.220465 1.593580 -15.752219 0.000001 -0.000001 0.000003 1.558650 10.885278 -28.109717 0.303175 1.861898 -18.494892 0.401168 2.132461 -21.306430 0.000000 -0.000001 0.000003 2.006271 14.472244 10.020605 -0.684789 3.770952 65.009447 -0.000002 9.835506 0.000015 12.940183 4.042304 9.058847 0.152397 -3.262690 12.133562 0.528536 -2.156785 27.536082 0.034569 -0.566953 6.977123 -0.000001 0.000005 -0.000002 -15.034959 -1.526202 -0.168910 12.354257 -30.174621 -13.137052 -0.665405 11.829340 -22.801968 -0.000002 -0.000002 0.000000 0.298668 -3.789328 18.855246 0.272006 -1.569813 19.658763 0.017654 -0.405459 4.983594 0.000002 0.000000 0.000004 0.189342 -3.420832 14.129139 0.516604 -2.133744 27.217132 0.153604 -1.187428 14.740610 0.000002 -0.000001 -0.000000 0.188931 -3.419210 14.108528 0.242396 -1.484343 18.547413 0.614807 -2.314610 29.747116 0.000000 0.000001 -0.000003 -18.313090 9.724269 9.273725 23.777299 -1.996471 2.336241 -9.326468 0.592878 -4.835700 -0.554097 0.000003 0.000000 -0.000000 0.000000 -0.000000 -15.295515 -6.839088 -4.260821 21.463736 -2.875947 -2.254316 -9.237663 -0.636873 5.660203 -0.040376 -0.000007 0.000002 -0.000000 0.000000 -0.000000 
-1.145464 197.230484 36.962933 3.455226 1.436433 -1.103346 1.153830 0.107267 0.422765 -0.487017 0.030205 0.340629 -0.487136 0.039575 0.341049 -9.890927 -1.193808 2.832212 -8.892507 -1.010983 -3.505555 -0.000003 0.000000 0.000000 -0.000003 0.000000 0.000000 -0.000003 0.000000 0.000000 1.450766 -13.532398 -8.559692 0.091903 -18.047528 -66.824815 0.000001 -1.925934 -0.000026 5.276874 -15.363539 -5.109335 1.817111 7.645110 -23.035491 0.673907 2.729876 -27.729079 0.120505 1.183382 -11.629130 -0.000000 -0.000001 0.000000 -20.738432 -4.054245 0.322068 10.662251 38.443013 15.710572 2.133359 3.626986 13.772629 0.000000 0.000001 0.000002 0.670829 4.955271 -26.274503 0.365849 2.039624 -20.336045 0.237282 1.651998 -16.346029 -0.000000 0.000002 -0.000002 2.253301 8.853036 -22.030355 0.427111 2.197753 -21.992888 0.220475 1.593564 -15.752240 -0.000000 -0.000002 -0.000001 1.558673 10.885273 -28.109761 0.303172 1.861888 -18.494897 0.401171 2.132461 -21.306439 -0.000002 -0.000003 0.000004 2.233016 14.359622 8.508871 0.744019 2.345941 67.749521 -0.000003 10.707822 0.000023 11.795619 2.874558 8.449558 0.152390 -3.262697 12.133575 0.528539 -2.156792 27.536085 0.034577 -0.566946 6.977140 -0.000001 0.000001 -0.000002 -15.034732 -1.526074 -0.169082 12.354281 -30.174656 -13.137015 -0.665383 11.829342 -22.801997 -0.000002 0.000000 0.000000 0.298665 -3.789346 18.855267 0.272005 -1.569815 19.658789 0.017648 -0.405463 4.983579 0.000001 -0.000002 0.000002 0.189337 -3.420831 14.129110 0.516607 -2.133743 27.217177 0.153595 -1.187413 14.740619 0.000000 0.000001 0.000004 0.188939 -3.419193 14.108532 0.242383 -1.484352 18.547445 0.614800 -2.314601 29.747154 0.000003 0.000001 0.000001 -18.266333 9.713083 9.594547 23.944244 -1.795986 2.363799 -9.574604 0.726527 -6.093114 -0.432543 0.000000 0.000001 0.000000 0.000000 -0.000000 -15.446625 -7.072700 -4.335086 22.087146 -2.718976 -2.260151 -9.800033 -0.736356 6.478031 -0.000121 0.000002 0.000002 0.000000 -0.000001 0.000000 
